<svg width="24" height="24" viewBox="0 0 24 24" xmlns="http://www.w3.org/2000/svg" style=""><g fill="none" class="nc-icon-wrapper"><path d="M12.3613 12.8506C13.4554 12.3413 14.5951 12.3984 15.6436 12.9512C16.0182 13.1487 16.3416 13.3482 16.6123 13.5078C16.8918 13.6727 17.1141 13.7941 17.3281 13.873C17.7064 14.0126 18.1057 14.0394 18.792 13.7256C19.1231 13.5744 19.5 13.8167 19.5 14.1807V15.0078L19.4951 15.1904C19.4004 17.0549 17.8605 18.1628 16.2324 18.415C14.7652 18.6423 13.0737 18.2112 12 16.9336C10.9284 18.2133 9.23995 18.6649 7.77051 18.4473C6.13463 18.205 4.59954 17.0929 4.50488 15.1943L4.5 15.0078V14.1807C4.5 13.8167 4.87689 13.5744 5.20801 13.7256C5.88744 14.0363 6.28529 14.011 6.66504 13.8721C6.87949 13.7935 7.10314 13.6722 7.38379 13.5078C7.65546 13.3486 7.98069 13.1493 8.35645 12.9512C9.40102 12.4004 10.5495 12.3436 11.6387 12.8506C11.7634 12.9086 11.8843 12.9725 12 13.043C12.1157 12.9725 12.2366 12.9086 12.3613 12.8506ZM8 8.5C9.10457 8.5 10 9.39543 10 10.5C10 11.6046 9.10457 12.5 8 12.5C6.89543 12.5 6 11.6046 6 10.5C6 9.39543 6.89543 8.5 8 8.5ZM16 8.5C17.1046 8.5 18 9.39543 18 10.5C18 11.6046 17.1046 12.5 16 12.5C14.8954 12.5 14 11.6046 14 10.5C14 9.39543 14.8954 8.5 16 8.5Z" fill="url(#1782740776847-8179156_face-mustache_existing_0_0ydyhix1v)" data-glass="origin" mask="url(#1782740776847-8179156_face-mustache_mask_qxrkb56a0)"></path><path d="M12.3613 12.8506C13.4554 12.3413 14.5951 12.3984 15.6436 12.9512C16.0182 13.1487 16.3416 13.3482 16.6123 13.5078C16.8918 13.6727 17.1141 13.7941 17.3281 13.873C17.7064 14.0126 18.1057 14.0394 18.792 13.7256C19.1231 13.5744 19.5 13.8167 19.5 14.1807V15.0078L19.4951 15.1904C19.4004 17.0549 17.8605 18.1628 16.2324 18.415C14.7652 18.6423 13.0737 18.2112 12 16.9336C10.9284 18.2133 9.23995 18.6649 7.77051 18.4473C6.13463 18.205 4.59954 17.0929 4.50488 15.1943L4.5 15.0078V14.1807C4.5 13.8167 4.87689 13.5744 5.20801 13.7256C5.88744 14.0363 6.28529 14.011 6.66504 13.8721C6.87949 13.7935 7.10314 13.6722 7.38379 13.5078C7.65546 13.3486 7.98069 13.1493 8.35645 12.9512C9.40102 12.4004 10.5495 12.3436 11.6387 12.8506C11.7634 12.9086 11.8843 12.9725 12 13.043C12.1157 12.9725 12.2366 12.9086 12.3613 12.8506ZM8 8.5C9.10457 8.5 10 9.39543 10 10.5C10 11.6046 9.10457 12.5 8 12.5C6.89543 12.5 6 11.6046 6 10.5C6 9.39543 6.89543 8.5 8 8.5ZM16 8.5C17.1046 8.5 18 9.39543 18 10.5C18 11.6046 17.1046 12.5 16 12.5C14.8954 12.5 14 11.6046 14 10.5C14 9.39543 14.8954 8.5 16 8.5Z" fill="url(#1782740776847-8179156_face-mustache_existing_0_0ydyhix1v)" data-glass="clone" filter="url(#1782740776847-8179156_face-mustache_filter_578fc7mhc)" clip-path="url(#1782740776847-8179156_face-mustache_clipPath_hf3gi849l)"></path><path d="M12 1C18.0751 1 23 5.92487 23 12C23 18.0751 18.0751 23 12 23C5.92487 23 1 18.0751 1 12C1 5.92487 5.92487 1 12 1ZM15.4102 13.3926C14.4928 12.9089 13.5176 12.8637 12.5723 13.3037C12.3658 13.3998 12.1738 13.5151 12 13.6475C11.8262 13.5151 11.6342 13.3998 11.4277 13.3037C10.4873 12.866 9.50324 12.911 8.58984 13.3926C7.23065 14.1093 6.63971 14.8004 5.28809 14.2998C5.15151 14.2492 5 14.3465 5 14.4922V15.0078C5.00027 18.3781 10.2498 19.1391 12 16.0615C13.7502 19.1391 18.9997 18.2947 19 15.0078V14.4922C19 14.3467 18.8493 14.2495 18.7129 14.2998C17.349 14.8062 16.7624 14.1056 15.4102 13.3926ZM8 9C7.17157 9 6.5 9.67157 6.5 10.5C6.5 11.3284 7.17157 12 8 12C8.82843 12 9.5 11.3284 9.5 10.5C9.5 9.67157 8.82843 9 8 9ZM16 9C15.1716 9 14.5 9.67157 14.5 10.5C14.5 11.3284 15.1716 12 16 12C16.8284 12 17.5 11.3284 17.5 10.5C17.5 9.67157 16.8284 9 16 9Z" fill="url(#1782740776847-8179156_face-mustache_existing_1_fuh9mmrv9)" data-glass="blur"></path><path d="M22.25 12C22.25 6.33908 17.6609 1.75 12 1.75C6.33908 1.75 1.75 6.33908 1.75 12C1.75 17.6609 6.33908 22.25 12 22.25V23C5.92487 23 1 18.0751 1 12C1 5.92487 5.92487 1 12 1C18.0751 1 23 5.92487 23 12C23 18.0751 18.0751 23 12 23V22.25C17.6609 22.25 22.25 17.6609 22.25 12Z" fill="url(#1782740776847-8179156_face-mustache_existing_2_2c9ogi6r6)"></path><defs><linearGradient id="1782740776847-8179156_face-mustache_existing_0_0ydyhix1v" x1="12" y1="8.5" x2="12" y2="18.5" gradientUnits="userSpaceOnUse"><stop stop-color="#575757"></stop><stop offset="1" stop-color="#151515"></stop></linearGradient><linearGradient id="1782740776847-8179156_face-mustache_existing_1_fuh9mmrv9" x1="12" y1="1" x2="12" y2="23" gradientUnits="userSpaceOnUse"><stop stop-color="#E3E3E599"></stop><stop offset="1" stop-color="#BBBBC099"></stop></linearGradient><linearGradient id="1782740776847-8179156_face-mustache_existing_2_2c9ogi6r6" x1="12" y1="1" x2="12" y2="13.74" gradientUnits="userSpaceOnUse"><stop stop-color="#fff"></stop><stop offset="1" stop-color="#fff" stop-opacity="0"></stop></linearGradient><filter id="1782740776847-8179156_face-mustache_filter_578fc7mhc" x="-100%" y="-100%" width="400%" height="400%" filterUnits="objectBoundingBox" primitiveUnits="userSpaceOnUse"><feGaussianBlur stdDeviation="2" x="0%" y="0%" width="100%" height="100%" in="SourceGraphic" edgeMode="none" result="blur"></feGaussianBlur></filter><clipPath id="1782740776847-8179156_face-mustache_clipPath_hf3gi849l"><path d="M12 1C18.0751 1 23 5.92487 23 12C23 18.0751 18.0751 23 12 23C5.92487 23 1 18.0751 1 12C1 5.92487 5.92487 1 12 1ZM15.4102 13.3926C14.4928 12.9089 13.5176 12.8637 12.5723 13.3037C12.3658 13.3998 12.1738 13.5151 12 13.6475C11.8262 13.5151 11.6342 13.3998 11.4277 13.3037C10.4873 12.866 9.50324 12.911 8.58984 13.3926C7.23065 14.1093 6.63971 14.8004 5.28809 14.2998C5.15151 14.2492 5 14.3465 5 14.4922V15.0078C5.00027 18.3781 10.2498 19.1391 12 16.0615C13.7502 19.1391 18.9997 18.2947 19 15.0078V14.4922C19 14.3467 18.8493 14.2495 18.7129 14.2998C17.349 14.8062 16.7624 14.1056 15.4102 13.3926ZM8 9C7.17157 9 6.5 9.67157 6.5 10.5C6.5 11.3284 7.17157 12 8 12C8.82843 12 9.5 11.3284 9.5 10.5C9.5 9.67157 8.82843 9 8 9ZM16 9C15.1716 9 14.5 9.67157 14.5 10.5C14.5 11.3284 15.1716 12 16 12C16.8284 12 17.5 11.3284 17.5 10.5C17.5 9.67157 16.8284 9 16 9Z" fill="url(#1782740776847-8179156_face-mustache_existing_1_fuh9mmrv9)"></path></clipPath><mask id="1782740776847-8179156_face-mustache_mask_qxrkb56a0"><rect width="100%" height="100%" fill="#FFF"></rect><path d="M12 1C18.0751 1 23 5.92487 23 12C23 18.0751 18.0751 23 12 23C5.92487 23 1 18.0751 1 12C1 5.92487 5.92487 1 12 1ZM15.4102 13.3926C14.4928 12.9089 13.5176 12.8637 12.5723 13.3037C12.3658 13.3998 12.1738 13.5151 12 13.6475C11.8262 13.5151 11.6342 13.3998 11.4277 13.3037C10.4873 12.866 9.50324 12.911 8.58984 13.3926C7.23065 14.1093 6.63971 14.8004 5.28809 14.2998C5.15151 14.2492 5 14.3465 5 14.4922V15.0078C5.00027 18.3781 10.2498 19.1391 12 16.0615C13.7502 19.1391 18.9997 18.2947 19 15.0078V14.4922C19 14.3467 18.8493 14.2495 18.7129 14.2998C17.349 14.8062 16.7624 14.1056 15.4102 13.3926ZM8 9C7.17157 9 6.5 9.67157 6.5 10.5C6.5 11.3284 7.17157 12 8 12C8.82843 12 9.5 11.3284 9.5 10.5C9.5 9.67157 8.82843 9 8 9ZM16 9C15.1716 9 14.5 9.67157 14.5 10.5C14.5 11.3284 15.1716 12 16 12C16.8284 12 17.5 11.3284 17.5 10.5C17.5 9.67157 16.8284 9 16 9Z" fill="#000"></path></mask></defs></g></svg>