<svg width="24" height="24" viewBox="0 0 24 24" xmlns="http://www.w3.org/2000/svg" style=""><g fill="none" class="nc-icon-wrapper"><path d="M8.00024 10.1865C8.53479 10.1866 9.03737 10.4836 9.07837 11.0166L9.84692 21.0059C9.92966 22.0814 9.07895 22.9998 8.00024 23C6.9214 23 6.07082 22.0815 6.15356 21.0059L6.92212 11.0166C6.96313 10.4835 7.46557 10.1865 8.00024 10.1865ZM18.6565 13C19.3982 13 20 13.6011 20.0002 14.3428V21.1494C20.0001 22.1715 19.1708 23 18.1487 23C17.0175 22.9998 16.151 21.9937 16.3186 20.875L17.3284 14.1436C17.4272 13.4863 17.9918 13.0001 18.6565 13Z" fill="url(#1775570030294-9171725_knife-spoon_existing_0_yzr42o5vp)" data-glass="origin" mask="url(#1775570030294-9171725_knife-spoon_mask_3po0pg8ly)"></path><path d="M8.00024 10.1865C8.53479 10.1866 9.03737 10.4836 9.07837 11.0166L9.84692 21.0059C9.92966 22.0814 9.07895 22.9998 8.00024 23C6.9214 23 6.07082 22.0815 6.15356 21.0059L6.92212 11.0166C6.96313 10.4835 7.46557 10.1865 8.00024 10.1865ZM18.6565 13C19.3982 13 20 13.6011 20.0002 14.3428V21.1494C20.0001 22.1715 19.1708 23 18.1487 23C17.0175 22.9998 16.151 21.9937 16.3186 20.875L17.3284 14.1436C17.4272 13.4863 17.9918 13.0001 18.6565 13Z" fill="url(#1775570030294-9171725_knife-spoon_existing_0_yzr42o5vp)" data-glass="clone" filter="url(#1775570030294-9171725_knife-spoon_filter_vlb50nvf6)" clip-path="url(#1775570030294-9171725_knife-spoon_clipPath_dnxqz0qrn)"></path><path d="M18.9092 1C19.5116 1.00005 20 1.4884 20 2.09082V15H16C14.8954 15 14 14.1046 14 13V5.5C14 3.01472 16.198 1 18.9092 1ZM8 1C9.16301 1 10.1751 1.67167 10.8779 2.6709C11.5807 3.67029 12 5.02585 12 6.5C12 7.97415 11.5807 9.32971 10.8779 10.3291C10.1751 11.3283 9.16301 12 8 12C6.83702 12 5.82585 11.3283 5.12305 10.3291C4.42013 9.32968 4 7.97434 4 6.5C4 5.02566 4.42013 3.67032 5.12305 2.6709C5.82585 1.67171 6.83702 1 8 1Z" fill="url(#1775570030294-9171725_knife-spoon_existing_1_4nc220iu7)" data-glass="blur"></path><path d="M19.25 2.09082C19.25 1.92602 19.133 1.78852 18.9775 1.75684L18.9092 1.75C16.6231 1.75 14.8625 3.38213 14.7549 5.3125L14.75 5.5V13C14.75 13.6904 15.3096 14.25 16 14.25V15L15.7959 14.9893C14.8543 14.8938 14.1062 14.1457 14.0107 13.2041L14 13V5.5C14 3.01472 16.198 1 18.9092 1L19.0205 1.00586C19.5706 1.06168 20 1.52599 20 2.09082V15H16V14.25H19.25V2.09082Z" fill="url(#1775570030294-9171725_knife-spoon_existing_2_zt1j26uts)"></path><path d="M11.25 6.5C11.25 5.16146 10.8675 3.96113 10.2637 3.10254C9.65793 2.24131 8.85209 1.75 8 1.75C7.14791 1.75 6.34207 2.24131 5.73633 3.10254C5.17021 3.90753 4.79903 5.0129 4.75488 6.25098L4.75 6.5C4.75 7.83854 5.13251 9.03887 5.73633 9.89746C6.34207 10.7587 7.14791 11.25 8 11.25V12C6.90964 12 5.95231 11.4099 5.25781 10.5127L5.12305 10.3291C4.42013 9.32968 4 7.97434 4 6.5C4 5.11785 4.36888 3.84012 4.99414 2.8623L5.12305 2.6709C5.82585 1.67171 6.83702 1 8 1C9.16301 1 10.1751 1.67167 10.8779 2.6709C11.5807 3.67029 12 5.02585 12 6.5C12 7.97415 11.5807 9.32971 10.8779 10.3291L10.7422 10.5127C10.0477 11.4099 9.09036 12 8 12V11.25C8.85209 11.25 9.65793 10.7587 10.2637 9.89746C10.8675 9.03887 11.25 7.83854 11.25 6.5Z" fill="url(#1775570030294-9171725_knife-spoon_existing_3_z3p2lznhp)"></path><defs><linearGradient id="1775570030294-9171725_knife-spoon_existing_0_yzr42o5vp" x1="13.074" y1="10.187" x2="13.074" y2="23" gradientUnits="userSpaceOnUse"><stop stop-color="#575757"></stop><stop offset="1" stop-color="#151515"></stop></linearGradient><linearGradient id="1775570030294-9171725_knife-spoon_existing_1_4nc220iu7" x1="12" y1="1" x2="12" y2="15" gradientUnits="userSpaceOnUse"><stop stop-color="#E3E3E599"></stop><stop offset="1" stop-color="#BBBBC099"></stop></linearGradient><linearGradient id="1775570030294-9171725_knife-spoon_existing_2_zt1j26uts" x1="17" y1="1" x2="17" y2="9.108" gradientUnits="userSpaceOnUse"><stop stop-color="#fff"></stop><stop offset="1" stop-color="#fff" stop-opacity="0"></stop></linearGradient><linearGradient id="1775570030294-9171725_knife-spoon_existing_3_z3p2lznhp" x1="8" y1="1" x2="8" y2="7.37" gradientUnits="userSpaceOnUse"><stop stop-color="#fff"></stop><stop offset="1" stop-color="#fff" stop-opacity="0"></stop></linearGradient><filter id="1775570030294-9171725_knife-spoon_filter_vlb50nvf6" x="-100%" y="-100%" width="400%" height="400%" filterUnits="objectBoundingBox" primitiveUnits="userSpaceOnUse"><feGaussianBlur stdDeviation="2" x="0%" y="0%" width="100%" height="100%" in="SourceGraphic" edgeMode="none" result="blur"></feGaussianBlur></filter><clipPath id="1775570030294-9171725_knife-spoon_clipPath_dnxqz0qrn"><path d="M18.9092 1C19.5116 1.00005 20 1.4884 20 2.09082V15H16C14.8954 15 14 14.1046 14 13V5.5C14 3.01472 16.198 1 18.9092 1ZM8 1C9.16301 1 10.1751 1.67167 10.8779 2.6709C11.5807 3.67029 12 5.02585 12 6.5C12 7.97415 11.5807 9.32971 10.8779 10.3291C10.1751 11.3283 9.16301 12 8 12C6.83702 12 5.82585 11.3283 5.12305 10.3291C4.42013 9.32968 4 7.97434 4 6.5C4 5.02566 4.42013 3.67032 5.12305 2.6709C5.82585 1.67171 6.83702 1 8 1Z" fill="url(#1775570030294-9171725_knife-spoon_existing_1_4nc220iu7)"></path></clipPath><mask id="1775570030294-9171725_knife-spoon_mask_3po0pg8ly"><rect width="100%" height="100%" fill="#FFF"></rect><path d="M18.9092 1C19.5116 1.00005 20 1.4884 20 2.09082V15H16C14.8954 15 14 14.1046 14 13V5.5C14 3.01472 16.198 1 18.9092 1ZM8 1C9.16301 1 10.1751 1.67167 10.8779 2.6709C11.5807 3.67029 12 5.02585 12 6.5C12 7.97415 11.5807 9.32971 10.8779 10.3291C10.1751 11.3283 9.16301 12 8 12C6.83702 12 5.82585 11.3283 5.12305 10.3291C4.42013 9.32968 4 7.97434 4 6.5C4 5.02566 4.42013 3.67032 5.12305 2.6709C5.82585 1.67171 6.83702 1 8 1Z" fill="#000"></path></mask></defs></g></svg>