<svg width="24" height="24" viewBox="0 0 24 24" xmlns="http://www.w3.org/2000/svg"><g fill="none" class="nc-icon-wrapper"><circle cx="12" cy="12" r="9.5" fill="url(#corcel_play_g0)" mask="url(#corcel_play_mask)"/><circle cx="12" cy="12" r="9.5" fill="url(#corcel_play_g0)" filter="url(#corcel_play_blur)" clip-path="url(#corcel_play_clip)"/><path d="M9.5 7.68C9.5 6.62 10.66 5.97 11.56 6.53L18.44 10.85C19.28 11.38 19.28 12.62 18.44 13.15L11.56 17.47C10.66 18.03 9.5 17.38 9.5 16.32V7.68Z" fill="url(#corcel_play_g1)"/><defs><linearGradient id="corcel_play_g0" x1="12" y1="1" x2="12" y2="23" gradientUnits="userSpaceOnUse"><stop stop-color="#575757"/><stop offset="1" stop-color="#151515"/></linearGradient><linearGradient id="corcel_play_g1" x1="12" y1="1" x2="12" y2="23" gradientUnits="userSpaceOnUse"><stop stop-color="#E3E3E599"/><stop offset="1" stop-color="#BBBBC099"/></linearGradient><filter id="corcel_play_blur" x="-100%" y="-100%" width="400%" height="400%" filterUnits="objectBoundingBox" primitiveUnits="userSpaceOnUse"><feGaussianBlur stdDeviation="2" in="SourceGraphic" result="blur"/></filter><clipPath id="corcel_play_clip"><path d="M9.5 7.68C9.5 6.62 10.66 5.97 11.56 6.53L18.44 10.85C19.28 11.38 19.28 12.62 18.44 13.15L11.56 17.47C10.66 18.03 9.5 17.38 9.5 16.32V7.68Z" /></clipPath><mask id="corcel_play_mask"><rect width="100%" height="100%" fill="#FFF"/><path d="M9.5 7.68C9.5 6.62 10.66 5.97 11.56 6.53L18.44 10.85C19.28 11.38 19.28 12.62 18.44 13.15L11.56 17.47C10.66 18.03 9.5 17.38 9.5 16.32V7.68Z" fill="#000"/></mask></defs></g></svg>