<svg width="24" height="24" viewBox="0 0 24 24" xmlns="http://www.w3.org/2000/svg" style=""><g fill="none" class="nc-icon-wrapper"><path d="M23 9.4V14.6C23 16.8402 23 17.9603 22.564 18.816C22.1805 19.5686 21.5686 20.1805 20.816 20.564C19.9603 21 18.8402 21 16.6 21H7.6C7.03995 21 6.75992 21 6.54601 20.891C6.35785 20.7951 6.20487 20.6422 6.10899 20.454C6 20.2401 6 19.9601 6 19.4V4.6C6 4.03995 6 3.75992 6.10899 3.54601C6.20487 3.35785 6.35785 3.20487 6.54601 3.10899C6.75992 3 7.03995 3 7.6 3H16.6C18.8402 3 19.9603 3 20.816 3.43597C21.5686 3.81947 22.1805 4.43139 22.564 5.18404C23 6.03969 23 7.15979 23 9.4Z" fill="url(#1760519092864-4369305_sidebar-left-show_existing_0_hr697a29r)" data-glass="origin" mask="url(#1760519092864-4369305_sidebar-left-show_mask_f1j8yedvg)"></path><path d="M23 9.4V14.6C23 16.8402 23 17.9603 22.564 18.816C22.1805 19.5686 21.5686 20.1805 20.816 20.564C19.9603 21 18.8402 21 16.6 21H7.6C7.03995 21 6.75992 21 6.54601 20.891C6.35785 20.7951 6.20487 20.6422 6.10899 20.454C6 20.2401 6 19.9601 6 19.4V4.6C6 4.03995 6 3.75992 6.10899 3.54601C6.20487 3.35785 6.35785 3.20487 6.54601 3.10899C6.75992 3 7.03995 3 7.6 3H16.6C18.8402 3 19.9603 3 20.816 3.43597C21.5686 3.81947 22.1805 4.43139 22.564 5.18404C23 6.03969 23 7.15979 23 9.4Z" fill="url(#1760519092864-4369305_sidebar-left-show_existing_0_hr697a29r)" data-glass="clone" filter="url(#1760519092864-4369305_sidebar-left-show_filter_psv17g79w)" clip-path="url(#1760519092864-4369305_sidebar-left-show_clipPath_7y16ihmf8)"></path><path d="M6.59961 3C6.97152 3 7.15803 3.00002 7.30859 3.04883C7.61303 3.14775 7.85225 3.38697 7.95117 3.69141C7.99998 3.84197 8 4.02848 8 4.40039V19.5996C8 19.9715 7.99998 20.158 7.95117 20.3086C7.85225 20.613 7.61303 20.8523 7.30859 20.9512C7.15803 21 6.97152 21 6.59961 21C5.11084 21 4.36615 21.0004 3.76367 20.8047C2.546 20.409 1.59099 19.454 1.19531 18.2363C0.999556 17.6339 1 16.8892 1 15.4004V8.59961C1 7.11084 0.999556 6.36615 1.19531 5.76367C1.59099 4.546 2.546 3.59099 3.76367 3.19531C4.36615 2.99956 5.11084 3 6.59961 3ZM12 9C12 7.76395 13.4115 7.05817 14.4004 7.7998L18.4004 10.7998C19.2002 11.3998 19.2002 12.6002 18.4004 13.2002L14.4004 16.2002C13.4115 16.9418 12 16.2361 12 15V9Z" fill="url(#1760519092864-4369305_sidebar-left-show_existing_1_iqfw5u5in)" data-glass="blur"></path><path d="M7.25 19.5996V4.40039C7.25 4.20609 7.24986 4.0896 7.24512 4.00293C7.24251 3.9554 7.23888 3.93178 7.2373 3.92285C7.21257 3.84677 7.15323 3.78743 7.07715 3.7627C7.06821 3.76112 7.0446 3.75749 6.99707 3.75488C6.9104 3.75014 6.79391 3.75 6.59961 3.75C5.05287 3.75 4.45709 3.75948 3.99609 3.90918C3.00667 4.23066 2.23066 5.00667 1.90918 5.99609C1.75948 6.45709 1.75 7.05287 1.75 8.59961V15.4004C1.75 16.9471 1.75948 17.5429 1.90918 18.0039C2.23066 18.9933 3.00667 19.7693 3.99609 20.0908C4.45709 20.2405 5.05287 20.25 6.59961 20.25V21C5.29725 21 4.56445 21.0002 3.99805 20.8691L3.76367 20.8047C2.62198 20.4337 1.71168 19.5708 1.27637 18.4609L1.19531 18.2363C1.04849 17.7845 1.01211 17.2525 1.00293 16.3867L1 15.4004V8.59961C1 7.11084 0.999556 6.36615 1.19531 5.76367C1.59099 4.546 2.546 3.59099 3.76367 3.19531C4.36615 2.99956 5.11084 3 6.59961 3C6.97152 3 7.15803 3.00002 7.30859 3.04883C7.61303 3.14775 7.85225 3.38697 7.95117 3.69141C7.99998 3.84197 8 4.02848 8 4.40039V19.5996C8 19.9715 7.99998 20.158 7.95117 20.3086L7.90723 20.4199C7.7911 20.6709 7.57494 20.8646 7.30859 20.9512L7.1875 20.9795C7.0541 21.0002 6.8791 21 6.59961 21V20.25C6.79391 20.25 6.9104 20.2499 6.99707 20.2451C7.0446 20.2425 7.06821 20.2389 7.07715 20.2373C7.15323 20.2126 7.21257 20.1532 7.2373 20.0771C7.23888 20.0682 7.24251 20.0446 7.24512 19.9971C7.24986 19.9104 7.25 19.7939 7.25 19.5996Z" fill="url(#1760519092864-4369305_sidebar-left-show_existing_2_eeovwpe4h)"></path><path d="M12 9.0002C12 7.76413 13.4115 7.05836 14.4004 7.8L18.4004 10.8C19.2001 11.4 19.2002 12.6004 18.4004 13.2004L14.4004 16.2004L14.3057 16.2648C13.3556 16.876 12.085 16.2412 12.0039 15.1145L12 15.0002V9.0002ZM12.75 15.0002C12.7502 15.6181 13.4558 15.9706 13.9502 15.5998L17.9502 12.5998C18.35 12.2998 18.3501 11.6996 17.9502 11.3996L13.9502 8.39961C13.4558 8.02886 12.75 8.38219 12.75 9.0002V15.0002Z" fill="url(#1760519092864-4369305_sidebar-left-show_existing_3_i7oy4efjm)"></path><defs><linearGradient id="1760519092864-4369305_sidebar-left-show_existing_0_hr697a29r" x1="14.5" y1="3" x2="14.5" y2="21" gradientUnits="userSpaceOnUse"><stop stop-color="#575757"></stop><stop offset="1" stop-color="#151515"></stop></linearGradient><linearGradient id="1760519092864-4369305_sidebar-left-show_existing_1_iqfw5u5in" x1="10" y1="3" x2="10" y2="21" gradientUnits="userSpaceOnUse"><stop stop-color="#E3E3E599"></stop><stop offset="1" stop-color="#BBBBC099"></stop></linearGradient><linearGradient id="1760519092864-4369305_sidebar-left-show_existing_2_eeovwpe4h" x1="4.5" y1="3" x2="4.5" y2="13.424" gradientUnits="userSpaceOnUse"><stop stop-color="#fff"></stop><stop offset="1" stop-color="#fff" stop-opacity="0"></stop></linearGradient><linearGradient id="1760519092864-4369305_sidebar-left-show_existing_3_i7oy4efjm" x1="15.5" y1="7.497" x2="15.5" y2="12.712" gradientUnits="userSpaceOnUse"><stop stop-color="#fff"></stop><stop offset="1" stop-color="#fff" stop-opacity="0"></stop></linearGradient><filter id="1760519092864-4369305_sidebar-left-show_filter_psv17g79w" x="-100%" y="-100%" width="400%" height="400%" filterUnits="objectBoundingBox" primitiveUnits="userSpaceOnUse"><feGaussianBlur stdDeviation="2" x="0%" y="0%" width="100%" height="100%" in="SourceGraphic" edgeMode="none" result="blur"></feGaussianBlur></filter><clipPath id="1760519092864-4369305_sidebar-left-show_clipPath_7y16ihmf8"><path d="M6.59961 3C6.97152 3 7.15803 3.00002 7.30859 3.04883C7.61303 3.14775 7.85225 3.38697 7.95117 3.69141C7.99998 3.84197 8 4.02848 8 4.40039V19.5996C8 19.9715 7.99998 20.158 7.95117 20.3086C7.85225 20.613 7.61303 20.8523 7.30859 20.9512C7.15803 21 6.97152 21 6.59961 21C5.11084 21 4.36615 21.0004 3.76367 20.8047C2.546 20.409 1.59099 19.454 1.19531 18.2363C0.999556 17.6339 1 16.8892 1 15.4004V8.59961C1 7.11084 0.999556 6.36615 1.19531 5.76367C1.59099 4.546 2.546 3.59099 3.76367 3.19531C4.36615 2.99956 5.11084 3 6.59961 3ZM12 9C12 7.76395 13.4115 7.05817 14.4004 7.7998L18.4004 10.7998C19.2002 11.3998 19.2002 12.6002 18.4004 13.2002L14.4004 16.2002C13.4115 16.9418 12 16.2361 12 15V9Z" fill="url(#1760519092864-4369305_sidebar-left-show_existing_1_iqfw5u5in)"></path></clipPath><mask id="1760519092864-4369305_sidebar-left-show_mask_f1j8yedvg"><rect width="100%" height="100%" fill="#FFF"></rect><path d="M6.59961 3C6.97152 3 7.15803 3.00002 7.30859 3.04883C7.61303 3.14775 7.85225 3.38697 7.95117 3.69141C7.99998 3.84197 8 4.02848 8 4.40039V19.5996C8 19.9715 7.99998 20.158 7.95117 20.3086C7.85225 20.613 7.61303 20.8523 7.30859 20.9512C7.15803 21 6.97152 21 6.59961 21C5.11084 21 4.36615 21.0004 3.76367 20.8047C2.546 20.409 1.59099 19.454 1.19531 18.2363C0.999556 17.6339 1 16.8892 1 15.4004V8.59961C1 7.11084 0.999556 6.36615 1.19531 5.76367C1.59099 4.546 2.546 3.59099 3.76367 3.19531C4.36615 2.99956 5.11084 3 6.59961 3ZM12 9C12 7.76395 13.4115 7.05817 14.4004 7.7998L18.4004 10.7998C19.2002 11.3998 19.2002 12.6002 18.4004 13.2002L14.4004 16.2002C13.4115 16.9418 12 16.2361 12 15V9Z" fill="#000"></path></mask></defs></g></svg>