<svg width="24" height="24" viewBox="0 0 24 24" xmlns="http://www.w3.org/2000/svg" style=""><g fill="none" class="nc-icon-wrapper"><path d="M23 9.49456C23 10.8534 22.6328 12.1227 22.0031 13.2205C21.845 13.6046 21.9351 14.0787 22.0364 14.464C22.1909 15.0516 22.4819 15.6165 22.8218 15.9571C22.9913 16.1268 23.0454 16.3801 22.9596 16.6042C22.8737 16.8283 22.6639 16.9809 22.4244 16.9939C21.7372 17.031 20.976 16.8952 20.3118 16.7016C19.8025 16.5532 19.3162 16.3598 18.9301 16.1575C17.8716 16.7042 16.6907 16.9963 15.4992 16.9963C11.3568 16.9962 8.00021 13.639 8 9.49773C8 5.37763 11.3235 2.03451 15.4351 2C19.576 2.00006 23 5.35309 23 9.49456Z" fill="url(#1775570030301-4965107_user_existing_0_vs4xw9183)" data-glass="origin" mask="url(#1775570030301-4965107_user_mask_v4wc3h18o)"></path><path d="M23 9.49456C23 10.8534 22.6328 12.1227 22.0031 13.2205C21.845 13.6046 21.9351 14.0787 22.0364 14.464C22.1909 15.0516 22.4819 15.6165 22.8218 15.9571C22.9913 16.1268 23.0454 16.3801 22.9596 16.6042C22.8737 16.8283 22.6639 16.9809 22.4244 16.9939C21.7372 17.031 20.976 16.8952 20.3118 16.7016C19.8025 16.5532 19.3162 16.3598 18.9301 16.1575C17.8716 16.7042 16.6907 16.9963 15.4992 16.9963C11.3568 16.9962 8.00021 13.639 8 9.49773C8 5.37763 11.3235 2.03451 15.4351 2C19.576 2.00006 23 5.35309 23 9.49456Z" fill="url(#1775570030301-4965107_user_existing_0_vs4xw9183)" data-glass="clone" filter="url(#1775570030301-4965107_user_filter_u9ne5su50)" clip-path="url(#1775570030301-4965107_user_clipPath_7rutd8dxc)"></path><path d="M10.3076 12C14.556 12 18 15.444 18 19.6924C18 20.9668 16.9668 22 15.6924 22H4.30762C3.03317 22 2.00004 20.9668 2 19.6924C2 15.444 5.44404 12 9.69238 12H10.3076ZM10 2C12.2091 2 14 3.79086 14 6C14 8.20914 12.2091 10 10 10C7.79086 10 6 8.20914 6 6C6 3.79086 7.79086 2 10 2Z" fill="url(#1775570030301-4965107_user_existing_1_lrwut1n2l)" data-glass="blur"></path><path d="M13.25 6C13.25 4.20507 11.7949 2.75 10 2.75C8.20507 2.75 6.75 4.20507 6.75 6C6.75 7.79493 8.20507 9.25 10 9.25V10C7.79086 10 6 8.20914 6 6C6 3.79086 7.79086 2 10 2C12.2091 2 14 3.79086 14 6C14 8.20914 12.2091 10 10 10V9.25C11.7949 9.25 13.25 7.79493 13.25 6Z" fill="url(#1775570030301-4965107_user_existing_2_qlzh0fv0h)"></path><path d="M15.6924 21.25V22H4.30762V21.25H15.6924ZM17.25 19.6924C17.25 15.8583 14.1417 12.75 10.3076 12.75H9.69238C5.85825 12.75 2.75 15.8583 2.75 19.6924C2.75004 20.5526 3.44739 21.25 4.30762 21.25V22C3.11295 22 2.13009 21.0921 2.01172 19.9287L2 19.6924C2 15.5767 5.23229 12.2156 9.29688 12.0098L9.69238 12H10.3076C14.556 12 18 15.444 18 19.6924L17.9883 19.9287C17.8778 21.0145 17.0145 21.8778 15.9287 21.9883L15.6924 22V21.25C16.5526 21.25 17.25 20.5526 17.25 19.6924Z" fill="url(#1775570030301-4965107_user_existing_3_ldmgvfboy)"></path><defs><linearGradient id="1775570030301-4965107_user_existing_0_vs4xw9183" x1="15.5" y1="2" x2="15.5" y2="17" gradientUnits="userSpaceOnUse"><stop stop-color="#575757"></stop><stop offset="1" stop-color="#151515"></stop></linearGradient><linearGradient id="1775570030301-4965107_user_existing_1_lrwut1n2l" x1="10" y1="2" x2="10" y2="22" gradientUnits="userSpaceOnUse"><stop stop-color="#E3E3E599"></stop><stop offset="1" stop-color="#BBBBC099"></stop></linearGradient><linearGradient id="1775570030301-4965107_user_existing_2_qlzh0fv0h" x1="10" y1="2" x2="10" y2="6.633" gradientUnits="userSpaceOnUse"><stop stop-color="#fff"></stop><stop offset="1" stop-color="#fff" stop-opacity="0"></stop></linearGradient><linearGradient id="1775570030301-4965107_user_existing_3_ldmgvfboy" x1="10" y1="12" x2="10" y2="17.791" gradientUnits="userSpaceOnUse"><stop stop-color="#fff"></stop><stop offset="1" stop-color="#fff" stop-opacity="0"></stop></linearGradient><filter id="1775570030301-4965107_user_filter_u9ne5su50" x="-100%" y="-100%" width="400%" height="400%" filterUnits="objectBoundingBox" primitiveUnits="userSpaceOnUse"><feGaussianBlur stdDeviation="2" x="0%" y="0%" width="100%" height="100%" in="SourceGraphic" edgeMode="none" result="blur"></feGaussianBlur></filter><clipPath id="1775570030301-4965107_user_clipPath_7rutd8dxc"><path d="M10.3076 12C14.556 12 18 15.444 18 19.6924C18 20.9668 16.9668 22 15.6924 22H4.30762C3.03317 22 2.00004 20.9668 2 19.6924C2 15.444 5.44404 12 9.69238 12H10.3076ZM10 2C12.2091 2 14 3.79086 14 6C14 8.20914 12.2091 10 10 10C7.79086 10 6 8.20914 6 6C6 3.79086 7.79086 2 10 2Z" fill="url(#1775570030301-4965107_user_existing_1_lrwut1n2l)"></path></clipPath><mask id="1775570030301-4965107_user_mask_v4wc3h18o"><rect width="100%" height="100%" fill="#FFF"></rect><path d="M10.3076 12C14.556 12 18 15.444 18 19.6924C18 20.9668 16.9668 22 15.6924 22H4.30762C3.03317 22 2.00004 20.9668 2 19.6924C2 15.444 5.44404 12 9.69238 12H10.3076ZM10 2C12.2091 2 14 3.79086 14 6C14 8.20914 12.2091 10 10 10C7.79086 10 6 8.20914 6 6C6 3.79086 7.79086 2 10 2Z" fill="#000"></path></mask></defs></g></svg>